<svg width="39" height="39" viewBox="0 0 39 39" fill="none" xmlns="http://www.w3.org/2000/svg">
<path d="M19.2083 26.8917L21.8975 24.2025L18.8242 21.1292H26.8917V17.2875H18.8242L21.8975 14.2142L19.2083 11.525L11.525 19.2083L19.2083 26.8917ZM19.2083 38.4167C16.5512 38.4167 14.0541 37.9124 11.7171 36.904C9.38007 35.8956 7.34719 34.527 5.61844 32.7982C3.88969 31.0695 2.52109 29.0366 1.51266 26.6996C0.504219 24.3626 0 21.8655 0 19.2083C0 16.5512 0.504219 14.0541 1.51266 11.7171C2.52109 9.38007 3.88969 7.34719 5.61844 5.61844C7.34719 3.88969 9.38007 2.52109 11.7171 1.51266C14.0541 0.504219 16.5512 0 19.2083 0C21.8655 0 24.3626 0.504219 26.6996 1.51266C29.0366 2.52109 31.0695 3.88969 32.7982 5.61844C34.527 7.34719 35.8956 9.38007 36.904 11.7171C37.9124 14.0541 38.4167 16.5512 38.4167 19.2083C38.4167 21.8655 37.9124 24.3626 36.904 26.6996C35.8956 29.0366 34.527 31.0695 32.7982 32.7982C31.0695 34.527 29.0366 35.8956 26.6996 36.904C24.3626 37.9124 21.8655 38.4167 19.2083 38.4167ZM19.2083 34.575C23.4982 34.575 27.1318 33.0864 30.1091 30.1091C33.0864 27.1318 34.575 23.4982 34.575 19.2083C34.575 14.9185 33.0864 11.2849 30.1091 8.3076C27.1318 5.33031 23.4982 3.84167 19.2083 3.84167C14.9185 3.84167 11.2849 5.33031 8.3076 8.3076C5.33031 11.2849 3.84167 14.9185 3.84167 19.2083C3.84167 23.4982 5.33031 27.1318 8.3076 30.1091C11.2849 33.0864 14.9185 34.575 19.2083 34.575Z" fill="#1C1B1F"/>
</svg>
