<svg width="47" height="47" viewBox="0 0 47 47" fill="none" xmlns="http://www.w3.org/2000/svg">
<mask id="mask0_16_379" style="mask-type:alpha" maskUnits="userSpaceOnUse" x="0" y="0" width="47" height="47">
<rect width="46.1" height="46.1" fill="#D9D9D9"/>
</mask>
<g mask="url(#mask0_16_379)">
<path d="M23.0499 44.7558L16.6151 38.4171H7.68323V29.4852L1.34448 23.0504L7.68323 16.6156V7.68372H16.6151L23.0499 1.34497L29.4847 7.68372H38.4166V16.6156L44.7553 23.0504L38.4166 29.4852V38.4171H29.4847L23.0499 44.7558ZM23.0499 32.6546C25.7071 32.6546 27.972 31.7181 29.8448 29.8453C31.7177 27.9725 32.6541 25.7075 32.6541 23.0504C32.6541 20.3932 31.7177 18.1283 29.8448 16.2554C27.972 14.3826 25.7071 13.4462 23.0499 13.4462V32.6546ZM23.0499 39.3775L27.852 34.5754H34.5749V27.8525L39.377 23.0504L34.5749 18.2483V11.5254H27.852L23.0499 6.7233L18.2478 11.5254H11.5249V18.2483L6.72282 23.0504L11.5249 27.8525V34.5754H18.2478L23.0499 39.3775Z" fill="#1C1B1F"/>
</g>
</svg>
