<svg width="47" height="47" viewBox="0 0 47 47" fill="none" xmlns="http://www.w3.org/2000/svg">
<mask id="mask0_16_382" style="mask-type:alpha" maskUnits="userSpaceOnUse" x="0" y="0" width="47" height="47">
<rect width="46.1" height="46.1" fill="#D9D9D9"/>
</mask>
<g mask="url(#mask0_16_382)">
<path d="M16.1349 32.6541L23.0499 25.7391L29.9649 32.6541L32.6541 29.9649L25.7391 23.0499L32.6541 16.1349L29.9649 13.4457L23.0499 20.3607L16.1349 13.4457L13.4457 16.1349L20.3607 23.0499L13.4457 29.9649L16.1349 32.6541ZM23.0499 42.2582C20.3927 42.2582 17.8956 41.754 15.5586 40.7456C13.2216 39.7371 11.1887 38.3685 9.45999 36.6398C7.73124 34.911 6.36265 32.8781 5.35421 30.5411C4.34577 28.2041 3.84155 25.707 3.84155 23.0499C3.84155 20.3927 4.34577 17.8956 5.35421 15.5586C6.36265 13.2216 7.73124 11.1887 9.45999 9.45999C11.1887 7.73124 13.2216 6.36265 15.5586 5.35421C17.8956 4.34577 20.3927 3.84155 23.0499 3.84155C25.707 3.84155 28.2041 4.34577 30.5411 5.35421C32.8781 6.36265 34.911 7.73124 36.6398 9.45999C38.3685 11.1887 39.7371 13.2216 40.7456 15.5586C41.754 17.8956 42.2582 20.3927 42.2582 23.0499C42.2582 25.707 41.754 28.2041 40.7456 30.5411C39.7371 32.8781 38.3685 34.911 36.6398 36.6398C34.911 38.3685 32.8781 39.7371 30.5411 40.7456C28.2041 41.754 25.707 42.2582 23.0499 42.2582ZM23.0499 38.4165C27.3397 38.4165 30.9733 36.9279 33.9506 33.9506C36.9279 30.9733 38.4165 27.3397 38.4165 23.0499C38.4165 18.76 36.9279 15.1264 33.9506 12.1492C30.9733 9.17187 27.3397 7.68322 23.0499 7.68322C18.76 7.68322 15.1264 9.17187 12.1492 12.1492C9.17187 15.1264 7.68322 18.76 7.68322 23.0499C7.68322 27.3397 9.17187 30.9733 12.1492 33.9506C15.1264 36.9279 18.76 38.4165 23.0499 38.4165Z" fill="#F95A5A"/>
</g>
</svg>
