<svg width="47" height="47" viewBox="0 0 47 47" fill="none" xmlns="http://www.w3.org/2000/svg">
<mask id="mask0_16_371" style="mask-type:alpha" maskUnits="userSpaceOnUse" x="0" y="0" width="47" height="47">
<rect width="46.1" height="46.1" fill="#D9D9D9"/>
</mask>
<g mask="url(#mask0_16_371)">
<path d="M23.0499 42.2582C20.3927 42.2582 17.8956 41.754 15.5586 40.7456C13.2216 39.7371 11.1887 38.3685 9.45999 36.6398C7.73124 34.911 6.36265 32.8781 5.35421 30.5411C4.34577 28.2041 3.84155 25.707 3.84155 23.0499C3.84155 20.3927 4.34577 17.8956 5.35421 15.5586C6.36265 13.2216 7.73124 11.1887 9.45999 9.45999C11.1887 7.73124 13.2216 6.36265 15.5586 5.35421C17.8956 4.34577 20.3927 3.84155 23.0499 3.84155C25.707 3.84155 28.2041 4.34577 30.5411 5.35421C32.8781 6.36265 34.911 7.73124 36.6398 9.45999C38.3685 11.1887 39.7371 13.2216 40.7456 15.5586C41.754 17.8956 42.2582 20.3927 42.2582 23.0499C42.2582 25.707 41.754 28.2041 40.7456 30.5411C39.7371 32.8781 38.3685 34.911 36.6398 36.6398C34.911 38.3685 32.8781 39.7371 30.5411 40.7456C28.2041 41.754 25.707 42.2582 23.0499 42.2582ZM23.0499 38.4165C27.3397 38.4165 30.9733 36.9279 33.9506 33.9506C36.9279 30.9733 38.4165 27.3397 38.4165 23.0499C38.4165 18.76 36.9279 15.1264 33.9506 12.1492C30.9733 9.17187 27.3397 7.68322 23.0499 7.68322C18.76 7.68322 15.1264 9.17187 12.1492 12.1492C9.17187 15.1264 7.68322 18.76 7.68322 23.0499C7.68322 27.3397 9.17187 30.9733 12.1492 33.9506C15.1264 36.9279 18.76 38.4165 23.0499 38.4165ZM17.2874 32.6541H24.9707C26.0272 32.6541 26.9316 32.2779 27.6839 31.5256C28.4362 30.7732 28.8124 29.8688 28.8124 28.8124V25.9311C28.8124 25.0988 28.5403 24.4105 27.996 23.8662C27.4518 23.322 26.7635 23.0499 25.9311 23.0499C26.7635 23.0499 27.4518 22.7778 27.996 22.2335C28.5403 21.6893 28.8124 21.001 28.8124 20.1686V17.2874C28.8124 16.2309 28.4362 15.3265 27.6839 14.5742C26.9316 13.8219 26.0272 13.4457 24.9707 13.4457H17.2874V17.2874H24.9707V21.1291H21.1291V24.9707H24.9707V28.8124H17.2874V32.6541Z" fill="#1C1B1F"/>
</g>
</svg>
