<svg width="47" height="47" viewBox="0 0 47 47" fill="none" xmlns="http://www.w3.org/2000/svg">
<mask id="mask0_16_376" style="mask-type:alpha" maskUnits="userSpaceOnUse" x="0" y="0" width="47" height="47">
<rect width="46.1" height="46.1" fill="#D9D9D9"/>
</mask>
<g mask="url(#mask0_16_376)">
<path d="M23.0499 42.2582C20.4247 42.2582 17.9437 41.754 15.6067 40.7456C13.2696 39.7371 11.2288 38.3605 9.484 36.6158C7.73924 34.871 6.36265 32.8301 5.35421 30.4931C4.34577 28.1561 3.84155 25.675 3.84155 23.0499C3.84155 20.3927 4.34577 17.9037 5.35421 15.5826C6.36265 13.2616 7.73924 11.2288 9.484 9.484C11.2288 7.73924 13.2696 6.36265 15.6067 5.35421C17.9437 4.34577 20.4247 3.84155 23.0499 3.84155C25.707 3.84155 28.1961 4.34577 30.5171 5.35421C32.8381 6.36265 34.871 7.73924 36.6158 9.484C38.3605 11.2288 39.7371 13.2616 40.7456 15.5826C41.754 17.9037 42.2582 20.3927 42.2582 23.0499C42.2582 25.675 41.754 28.1561 40.7456 30.4931C39.7371 32.8301 38.3605 34.871 36.6158 36.6158C34.871 38.3605 32.8381 39.7371 30.5171 40.7456C28.1961 41.754 25.707 42.2582 23.0499 42.2582ZM23.0499 38.3205C23.8822 37.168 24.6026 35.9675 25.2108 34.7189C25.8191 33.4704 26.3153 32.1418 26.6995 30.7332H19.4003C19.7845 32.1418 20.2807 33.4704 20.8889 34.7189C21.4972 35.9675 22.2175 37.168 23.0499 38.3205ZM18.0557 37.5522C17.4795 36.4957 16.9753 35.3992 16.5431 34.2628C16.1109 33.1263 15.7507 31.9497 15.4626 30.7332H9.79614C10.7245 32.3339 11.885 33.7265 13.2776 34.911C14.6702 36.0955 16.2629 36.9759 18.0557 37.5522ZM28.0441 37.5522C29.8368 36.9759 31.4295 36.0955 32.8221 34.911C34.2147 33.7265 35.3752 32.3339 36.3036 30.7332H30.6372C30.3491 31.9497 29.9889 33.1263 29.5567 34.2628C29.1245 35.3992 28.6203 36.4957 28.0441 37.5522ZM8.16343 26.8916H14.6943C14.5982 26.2513 14.5262 25.619 14.4782 24.9947C14.4301 24.3705 14.4061 23.7222 14.4061 23.0499C14.4061 22.3776 14.4301 21.7293 14.4782 21.105C14.5262 20.4808 14.5982 19.8485 14.6943 19.2082H8.16343C8.00336 19.8485 7.88331 20.4808 7.80327 21.105C7.72324 21.7293 7.68322 22.3776 7.68322 23.0499C7.68322 23.7222 7.72324 24.3705 7.80327 24.9947C7.88331 25.619 8.00336 26.2513 8.16343 26.8916ZM18.5359 26.8916H27.5638C27.6599 26.2513 27.7319 25.619 27.7799 24.9947C27.828 24.3705 27.852 23.7222 27.852 23.0499C27.852 22.3776 27.828 21.7293 27.7799 21.105C27.7319 20.4808 27.6599 19.8485 27.5638 19.2082H18.5359C18.4399 19.8485 18.3679 20.4808 18.3198 21.105C18.2718 21.7293 18.2478 22.3776 18.2478 23.0499C18.2478 23.7222 18.2718 24.3705 18.3198 24.9947C18.3679 25.619 18.4399 26.2513 18.5359 26.8916ZM31.4055 26.8916H37.9363C38.0964 26.2513 38.2165 25.619 38.2965 24.9947C38.3765 24.3705 38.4165 23.7222 38.4165 23.0499C38.4165 22.3776 38.3765 21.7293 38.2965 21.105C38.2165 20.4808 38.0964 19.8485 37.9363 19.2082H31.4055C31.5016 19.8485 31.5736 20.4808 31.6216 21.105C31.6696 21.7293 31.6936 22.3776 31.6936 23.0499C31.6936 23.7222 31.6696 24.3705 31.6216 24.9947C31.5736 25.619 31.5016 26.2513 31.4055 26.8916ZM30.6372 15.3666H36.3036C35.3752 13.7659 34.2147 12.3733 32.8221 11.1887C31.4295 10.0042 29.8368 9.12384 28.0441 8.54759C28.6203 9.60405 29.1245 10.7005 29.5567 11.837C29.9889 12.9735 30.3491 14.15 30.6372 15.3666ZM19.4003 15.3666H26.6995C26.3153 13.9579 25.8191 12.6294 25.2108 11.3808C24.6026 10.1323 23.8822 8.93176 23.0499 7.77926C22.2175 8.93176 21.4972 10.1323 20.8889 11.3808C20.2807 12.6294 19.7845 13.9579 19.4003 15.3666ZM9.79614 15.3666H15.4626C15.7507 14.15 16.1109 12.9735 16.5431 11.837C16.9753 10.7005 17.4795 9.60405 18.0557 8.54759C16.2629 9.12384 14.6702 10.0042 13.2776 11.1887C11.885 12.3733 10.7245 13.7659 9.79614 15.3666Z" fill="#1C1B1F"/>
</g>
</svg>
