<svg width="47" height="47" viewBox="0 0 47 47" fill="none" xmlns="http://www.w3.org/2000/svg">
<mask id="mask0_16_356" style="mask-type:alpha" maskUnits="userSpaceOnUse" x="0" y="0" width="47" height="47">
<rect width="46.1017" height="46.1017" fill="#D9D9D9"/>
</mask>
<g mask="url(#mask0_16_356)">
<path d="M18.2486 31.6951L31.6949 23.0511L18.2486 14.407V31.6951ZM23.0508 42.2601C20.3936 42.2601 17.8964 41.7559 15.5593 40.7474C13.2222 39.7389 11.1893 38.3703 9.46044 36.6415C7.73163 34.9127 6.36298 32.8797 5.35451 30.5426C4.34603 28.2055 3.8418 25.7083 3.8418 23.0511C3.8418 20.3938 4.34603 17.8967 5.35451 15.5596C6.36298 13.2225 7.73163 11.1895 9.46044 9.46068C11.1893 7.73187 13.2222 6.36323 15.5593 5.35475C17.8964 4.34628 20.3936 3.84204 23.0508 3.84204C25.7081 3.84204 28.2053 4.34628 30.5424 5.35475C32.8795 6.36323 34.9124 7.73187 36.6412 9.46068C38.37 11.1895 39.7387 13.2225 40.7472 15.5596C41.7556 17.8967 42.2599 20.3938 42.2599 23.0511C42.2599 25.7083 41.7556 28.2055 40.7472 30.5426C39.7387 32.8797 38.37 34.9127 36.6412 36.6415C34.9124 38.3703 32.8795 39.7389 30.5424 40.7474C28.2053 41.7559 25.7081 42.2601 23.0508 42.2601ZM23.0508 38.4183C27.3409 38.4183 30.9746 36.9296 33.952 33.9522C36.9294 30.9748 38.4181 27.3411 38.4181 23.0511C38.4181 18.7611 36.9294 15.1274 33.952 12.15C30.9746 9.17255 27.3409 7.68385 23.0508 7.68385C18.7608 7.68385 15.1271 9.17255 12.1497 12.15C9.17231 15.1274 7.6836 18.7611 7.6836 23.0511C7.6836 27.3411 9.17231 30.9748 12.1497 33.9522C15.1271 36.9296 18.7608 38.4183 23.0508 38.4183Z" fill="#1C1B1F"/>
</g>
</svg>
