<svg width="47" height="47" viewBox="0 0 47 47" fill="none" xmlns="http://www.w3.org/2000/svg">
<mask id="mask0_16_359" style="mask-type:alpha" maskUnits="userSpaceOnUse" x="0" y="0" width="47" height="47">
<rect width="46.1" height="46.1" fill="#D9D9D9"/>
</mask>
<g mask="url(#mask0_16_359)">
<path d="M17.7677 42.2582L16.9994 36.1116C16.5832 35.9515 16.191 35.7594 15.8228 35.5353C15.4547 35.3112 15.0945 35.0711 14.7424 34.815L9.0279 37.216L3.74561 28.0921L8.69175 24.3464C8.65974 24.1224 8.64373 23.9063 8.64373 23.6982V22.4016C8.64373 22.1935 8.65974 21.9774 8.69175 21.7533L3.74561 18.0077L9.0279 8.88374L14.7424 11.2848C15.0945 11.0287 15.4627 10.7886 15.8469 10.5645C16.231 10.3404 16.6152 10.1483 16.9994 9.98822L17.7677 3.84155H28.3323L29.1006 9.98822C29.5168 10.1483 29.909 10.3404 30.2771 10.5645C30.6453 10.7886 31.0054 11.0287 31.3576 11.2848L37.0721 8.88374L42.3544 18.0077L37.4082 21.7533C37.4402 21.9774 37.4562 22.1935 37.4562 22.4016V23.6982C37.4562 23.9063 37.4242 24.1224 37.3602 24.3464L42.3063 28.0921L37.024 37.216L31.3576 34.815C31.0054 35.0711 30.6373 35.3112 30.2531 35.5353C29.8689 35.7594 29.4848 35.9515 29.1006 36.1116L28.3323 42.2582H17.7677ZM21.1291 38.4165H24.9228L25.5951 33.3263C26.5875 33.0702 27.5079 32.6941 28.3563 32.1979C29.2046 31.7016 29.981 31.1014 30.6853 30.3971L35.4394 32.3659L37.3122 29.1005L33.1824 25.9792C33.3424 25.531 33.4545 25.0588 33.5185 24.5625C33.5825 24.0663 33.6146 23.5621 33.6146 23.0499C33.6146 22.5377 33.5825 22.0334 33.5185 21.5372C33.4545 21.041 33.3424 20.5688 33.1824 20.1206L37.3122 16.9993L35.4394 13.7338L30.6853 15.7507C29.981 15.0144 29.2046 14.3981 28.3563 13.9019C27.5079 13.4057 26.5875 13.0295 25.5951 12.7734L24.9708 7.68322H21.1772L20.5049 12.7734C19.5124 13.0295 18.592 13.4057 17.7437 13.9019C16.8953 14.3981 16.119 14.9984 15.4147 15.7027L10.6606 13.7338L8.78779 16.9993L12.9176 20.0726C12.7575 20.5528 12.6455 21.033 12.5814 21.5132C12.5174 21.9934 12.4854 22.5056 12.4854 23.0499C12.4854 23.5621 12.5174 24.0583 12.5814 24.5385C12.6455 25.0187 12.7575 25.4989 12.9176 25.9792L8.78779 29.1005L10.6606 32.3659L15.4147 30.3491C16.119 31.0854 16.8953 31.7016 17.7437 32.1979C18.592 32.6941 19.5124 33.0702 20.5049 33.3263L21.1291 38.4165ZM23.146 29.7728C25.0028 29.7728 26.5875 29.1165 27.9001 27.8039C29.2127 26.4914 29.8689 24.9067 29.8689 23.0499C29.8689 21.1931 29.2127 19.6084 27.9001 18.2958C26.5875 16.9833 25.0028 16.327 23.146 16.327C21.2572 16.327 19.6645 16.9833 18.3679 18.2958C17.0714 19.6084 16.4231 21.1931 16.4231 23.0499C16.4231 24.9067 17.0714 26.4914 18.3679 27.8039C19.6645 29.1165 21.2572 29.7728 23.146 29.7728Z" fill="#1C1B1F"/>
</g>
</svg>
